
<svg xmlns="http://www.w3.org/2000/svg" xmlns:xlink="http://www.w3.org/1999/xlink" version="1.1" id="Layer_1" x="0px" y="0px" viewBox="0 0 1548.4 154" style="enable-background:new 0 0 1548.4 154;" xml:space="preserve"> <style type="text/css"> .st0{fill:#BA8D56;} </style> <g id="Logo"> <g id="BEST_PRESCHOOL"> <g id="Preschool"> <path class="st0" d="M557.9,18.1c5.6,0,10.8,1.1,15.7,3.2s9.2,5,12.8,8.6c3.6,3.6,6.5,7.9,8.6,12.8c2.1,4.9,3.2,10.2,3.2,15.7 c0,5.6-0.9,10.7-2.8,15.5c-1.9,4.8-4.6,8.9-8.2,12.5c-3.6,3.6-8.2,6.4-13.7,8.4s-11.9,3-19.1,3h-25.3v33.7h-21.7V18.1H557.9z M557.9,78.2c3.2,0,6-0.5,8.4-1.6s4.3-2.6,5.8-4.4c1.5-1.9,2.6-4,3.3-6.4s1.1-4.9,1.1-7.4c0-2.6-0.5-5.1-1.4-7.7 c-0.9-2.5-2.3-4.8-4-6.7c-1.8-2-3.9-3.6-6.5-4.8s-5.6-1.9-9-1.9h-26.5v40.9L557.9,78.2L557.9,78.2z"></path> <path class="st0" d="M637.4,131.5h-21.7V18.1h51.5c5.8,0,11.1,1,15.9,2.9c4.8,1.9,8.9,4.6,12.3,8.1c3.4,3.5,6.1,7.6,8,12.4 s2.9,10.1,2.9,15.7c0,8.6-2.1,16.1-6.4,22.5c-4.3,6.4-10,11-17.2,13.8c9.5,12.6,18.9,25.3,28.2,38.1h-25.8 c-4.5-5.9-9-11.8-13.3-17.8s-8.7-12.1-13-18.3h-21.5L637.4,131.5L637.4,131.5z M637.4,76.2h29.8c2,0,4-0.4,6.1-1.2s4-2,5.6-3.6 s3-3.6,4.1-6s1.6-5.2,1.6-8.4c0-1.7-0.2-3.6-0.6-5.9c-0.4-2.3-1.2-4.4-2.5-6.5c-1.2-2.1-3-3.8-5.3-5.3c-2.3-1.4-5.3-2.2-9.1-2.2 h-29.8v39.1H637.4z"></path> <path class="st0" d="M748.9,37.3v28.4h54.9v19.7h-54.9v26.7h61.8v19.4h-83.5V18.1h83.5v19.2H748.9z"></path> <path class="st0" d="M826.5,115l11.4-16.8c5.5,3.8,11.2,7.1,17,9.8s12,4.1,18.4,4.1c3.4,0,6.4-0.4,9-1.3c2.6-0.8,4.8-1.9,6.6-3.3 c1.8-1.3,3.1-2.9,4-4.6c0.9-1.7,1.3-3.5,1.3-5.2c0-2.2-0.7-4.1-2-5.6s-3.1-2.8-5.4-3.8c-2.2-1-4.9-1.8-7.9-2.5s-6.2-1.3-9.5-1.9 c-2.2-0.4-4.7-0.9-7.6-1.4c-2.9-0.5-5.9-1.3-9-2.2s-6.1-2.2-9.1-3.7s-5.7-3.5-8.1-5.8c-2.4-2.3-4.3-5.1-5.8-8.4 c-1.5-3.2-2.2-7.1-2.2-11.5c0-6.4,1.3-11.7,3.9-16c2.6-4.2,5.9-7.6,10-10c4-2.4,8.5-4.2,13.5-5.2c4.9-1,9.7-1.5,14.3-1.5 s8.7,0.3,12.3,0.9s6.9,1.5,10,2.6s6.1,2.6,9.1,4.3c2.9,1.7,6.1,3.8,9.5,6.2l-11.7,16.5c-5.2-3.6-10.2-6.3-15-8.2 s-9.8-2.8-15.1-2.8c-1.8,0-3.8,0.2-6.1,0.7c-2.3,0.4-4.5,1.2-6.5,2.2s-3.7,2.3-5.1,3.8c-1.3,1.6-2,3.4-2,5.6c0,2.2,0.8,4,2.4,5.5 c1.6,1.5,3.6,2.7,6.1,3.7s5.2,1.8,8.2,2.5s5.9,1.4,8.7,2.1c2.1,0.5,4.6,1,7.4,1.5c2.8,0.5,5.8,1.2,8.8,2.1c3,0.9,6.1,2.1,9.1,3.6 s5.7,3.4,8,5.8c2.3,2.3,4.2,5.2,5.7,8.7c1.4,3.4,2.2,7.6,2.2,12.5c0,5.7-1,10.6-3,14.8s-4.8,7.7-8.5,10.4s-8.1,4.8-13.2,6.2 c-5.1,1.4-10.7,2.1-16.9,2.1c-5.7,0-10.7-0.4-15.1-1.3c-4.3-0.8-8.3-2-11.9-3.4c-3.6-1.4-7-3.2-10.2-5.2 C833.2,119.6,829.9,117.4,826.5,115z"></path> <path class="st0" d="M1036.4,102.5c-2.4,4.4-5.3,8.4-8.8,11.9s-7.4,6.6-11.6,9.1s-8.8,4.5-13.8,5.9c-4.9,1.4-10.1,2.1-15.3,2.1 c-7.8,0-15.1-1.5-22-4.5s-12.9-7.1-18-12.2c-5.1-5.1-9.2-11.2-12.2-18c-3-6.9-4.5-14.2-4.5-22s1.5-15.1,4.5-22s7.1-12.9,12.2-18 c5.1-5.1,11.2-9.2,18-12.2c6.9-3,14.2-4.5,22-4.5c5.3,0,10.4,0.7,15.3,2.1s9.5,3.4,13.8,5.9c4.2,2.5,8.1,5.6,11.6,9.1 s6.4,7.5,8.8,11.7l-19.6,7.9c-1.6-2.4-3.5-4.6-5.6-6.7c-2.1-2.1-4.5-3.9-7.1-5.5s-5.3-2.8-8.2-3.7c-2.9-0.9-5.9-1.3-9-1.3 c-5,0-9.7,1-14,3.1c-4.3,2-8.1,4.8-11.3,8.2c-3.2,3.4-5.7,7.4-7.6,11.9s-2.8,9.3-2.8,14.1c0,5,0.9,9.7,2.8,14.2s4.4,8.4,7.6,11.8 c3.2,3.4,7,6.1,11.3,8.2c4.3,2,9,3.1,14,3.1c3.1,0,6.1-0.4,9-1.3c2.9-0.9,5.6-2.1,8.2-3.7c2.6-1.6,5-3.5,7.1-5.6s4-4.4,5.6-6.8 L1036.4,102.5z"></path> <path class="st0" d="M1155.2,18.1v113.4h-21.7V86.4h-56v45.1h-21.7V18.1h21.7v49.1h56V18.1H1155.2z"></path> <path class="st0" d="M1231.8,131.5c-7.8,0-15.1-1.5-21.9-4.5c-6.9-3-12.9-7-18-12.2c-5.1-5.1-9.2-11.1-12.2-18 s-4.5-14.2-4.5-22.1c0-7.8,1.5-15.1,4.5-22s7-12.9,12.2-18.1c5.1-5.1,11.1-9.2,18-12.2s14.2-4.5,21.9-4.5 c7.9,0,15.2,1.5,22.1,4.5s12.9,7,18,12.2c5.1,5.1,9.2,11.1,12.2,18.1c3,6.9,4.5,14.3,4.5,22c0,7.9-1.5,15.2-4.5,22.1 c-3,6.9-7,12.9-12.2,18c-5.1,5.1-11.1,9.2-18,12.2C1247,130,1239.7,131.5,1231.8,131.5z M1231.9,37.6c-5,0-9.6,1-13.9,3.1 c-4.3,2-8.1,4.8-11.3,8.1c-3.2,3.4-5.8,7.3-7.7,11.9c-1.9,4.5-2.8,9.2-2.8,14.1c0,5,0.9,9.7,2.8,14.2s4.4,8.4,7.7,11.9 c3.2,3.4,7,6.2,11.3,8.2s9,3.1,13.9,3.1c5,0,9.6-1,13.9-3.1c4.3-2,8.1-4.8,11.3-8.2c3.2-3.4,5.8-7.4,7.7-11.9 c1.9-4.5,2.8-9.2,2.8-14.2c0-4.9-0.9-9.6-2.8-14.1s-4.4-8.5-7.7-11.9c-3.2-3.4-7-6.1-11.3-8.1 C1241.5,38.6,1236.8,37.6,1231.9,37.6z"></path> <path class="st0" d="M1365,131.5c-7.8,0-15.1-1.5-21.9-4.5c-6.9-3-12.9-7-18-12.2c-5.1-5.1-9.2-11.1-12.2-18s-4.5-14.2-4.5-22.1 c0-7.8,1.5-15.1,4.5-22s7-12.9,12.2-18.1c5.1-5.1,11.1-9.2,18-12.2s14.2-4.5,21.9-4.5c7.9,0,15.2,1.5,22.1,4.5s12.9,7,18,12.2 c5.1,5.1,9.2,11.1,12.2,18.1c3,6.9,4.5,14.3,4.5,22c0,7.9-1.5,15.2-4.5,22.1c-3,6.9-7,12.9-12.2,18c-5.1,5.1-11.1,9.2-18,12.2 C1380.3,130,1372.9,131.5,1365,131.5z M1365.1,37.6c-5,0-9.6,1-13.9,3.1c-4.3,2-8.1,4.8-11.3,8.1c-3.2,3.4-5.8,7.3-7.7,11.9 c-1.9,4.5-2.8,9.2-2.8,14.1c0,5,0.9,9.7,2.8,14.2s4.4,8.4,7.7,11.9c3.2,3.4,7,6.2,11.3,8.2s9,3.1,13.9,3.1c5,0,9.6-1,13.9-3.1 c4.3-2,8.1-4.8,11.3-8.2c3.2-3.4,5.8-7.4,7.7-11.9c1.9-4.5,2.8-9.2,2.8-14.2c0-4.9-0.9-9.6-2.8-14.1s-4.4-8.5-7.7-11.9 c-3.2-3.4-7-6.1-11.3-8.1C1374.7,38.6,1370.1,37.6,1365.1,37.6z"></path> <path class="st0" d="M1523.8,112.3v19.2h-81.7V18.1h21.7v94.2L1523.8,112.3L1523.8,112.3z"></path> </g> <g id="BEST"> <g id="Child"> <path id="Leg" class="st0" d="M423.6,100.5c-4.8,1.8-9.7,3.6-14.6,5.2c-5.9,1.9-11.9,3.7-18,5.2c-1.5-2.3-2.9-4.7-4.3-7 c0.6-3.1,1.2-6.2,1.7-9.3c1.1-6.6,2-13.3,2.7-20.1c0-0.1,0-0.3,0-0.4c2.6,5.4,5.3,10.6,8.2,15.8c6.5-2,12.8-4.2,19.1-6.6 L423.6,100.5z"></path> <circle id="Head" class="st0" cx="380.7" cy="12.1" r="12.1"></circle> <path id="Body" class="st0" d="M430.1,17.5c-13.5,1.7-26.2,5.5-37.8,11.2c-3.4,1.6-6.6,3.4-9.8,5.4c-2.7-1.1-5.3-2-8.1-2.9 c-0.1,0-0.2,0-0.2-0.1c-6.4-2-13.1-3.5-19.9-4.4c-7-0.9-14.2-1.2-21.5-0.9l1.5,17.7c8.8-0.4,17.4,0.4,25.7,2.2 c1.7,0.4,3.5,0.8,5.2,1.3c3.2,0.9,6.4,1.9,9.5,3.1l0,0c0,0.1,0,0.2,0,0.2c-0.2,9.4-0.9,18.7-2,27.8c-0.9,7.2-2,14.2-3.3,21.2 c-1.3,6.4-2.7,12.8-4.4,19.1c-1.2,4.5-2.5,9-3.9,13.5h18.8c1.7-5.7,3.3-11.5,4.6-17.3c0.8-3.2,1.5-6.5,2.1-9.7 c0.7-3.3,1.3-6.5,1.8-9.8c1.1-6.6,2-13.2,2.7-20c0.9-8.6,1.4-17.3,1.5-26c0-0.1,0-0.1,0-0.2c0,0,0.1,0,0.1-0.1 c3-1.8,6-3.4,9.1-4.8c9.2-4.3,19.2-7.2,29.8-8.6L430.1,17.5z"></path> </g> <path id="S" class="st0" d="M232.3,114.8L243.7,98c5.5,3.8,11.1,7.1,17,9.8c5.8,2.7,11.9,4.1,18.3,4.1c3.4,0,6.4-0.4,9-1.3 c2.6-0.8,4.8-1.9,6.6-3.3c1.8-1.3,3.1-2.9,4-4.6c0.9-1.7,1.3-3.5,1.3-5.2c0-2.2-0.7-4.1-2-5.6s-3.1-2.8-5.4-3.8 c-2.2-1-4.9-1.8-7.9-2.5s-6.2-1.3-9.5-1.9c-2.2-0.4-4.7-0.9-7.6-1.4s-5.9-1.3-9-2.2s-6.1-2.2-9.1-3.7s-5.7-3.5-8.1-5.8 s-4.3-5.1-5.8-8.4c-1.4-3.2-2.2-7.1-2.2-11.4c0-6.4,1.3-11.7,3.9-15.9s5.9-7.6,9.9-10s8.5-4.2,13.5-5.2c4.9-1,9.7-1.5,14.3-1.5 c4.6,0,8.7,0.3,12.3,0.9c3.6,0.6,6.9,1.5,10,2.6s6.1,2.6,9.1,4.3c2.9,1.7,6.1,3.8,9.5,6.2l-11.7,16.3c-5.2-3.6-10.2-6.3-15-8.2 s-9.8-2.8-15.1-2.8c-1.8,0-3.8,0.2-6.1,0.7c-2.3,0.4-4.5,1.2-6.5,2.2s-3.7,2.3-5.1,3.8c-1.3,1.5-2,3.4-2,5.6c0,2.2,0.8,4,2.4,5.5 s3.6,2.7,6.1,3.7s5.2,1.8,8.2,2.5s5.9,1.4,8.7,2.1c2.1,0.5,4.6,1,7.4,1.5s5.8,1.2,8.8,2.1c3,0.9,6.1,2.1,9.1,3.6s5.7,3.4,8,5.8 c2.3,2.3,4.2,5.2,5.7,8.7c1.4,3.4,2.2,7.6,2.2,12.5c0,5.7-1,10.6-3,14.8s-4.8,7.7-8.5,10.4s-8.1,4.8-13.2,6.2s-10.7,2.1-16.9,2.1 c-5.7,0-10.7-0.4-15-1.3c-4.3-0.8-8.3-2-11.9-3.4s-7-3.2-10.2-5.2C239,119.4,235.7,117.2,232.3,114.8z"></path> <path id="E" class="st0" d="M129.9,17.3v84.8c2.8-3.5,5.8-6.9,9.5-11c3.8-4.2,9.7-9.8,14-13.1V36.4h61.1V17.3 C214.5,17.3,129.9,17.3,129.9,17.3z M153.4,112.6L153.4,112.6c-2.5,2.1-4.9,4.4-7.1,6.8c-3.6,3.8-6.9,7.8-9.9,12.1h78.9v-18.9 L153.4,112.6L153.4,112.6z"></path> <g id="Book"> <path class="st0" d="M209.8,76.2v7.1c-22,1.9-42,10.5-58.2,23.7c-3.4,2.8-6.5,5.7-9.5,8.8c-4.5,4.7-8.6,9.9-12.2,15.5l0,0 c-3.6-5.5-7.7-10.7-12.2-15.5c-2.4-2.6-5-5-7.7-7.3c-6.4-5.5-13.5-10.2-21.1-14.1c-11.8-6-24.8-9.9-38.5-11.1 c-0.4,0-0.7-0.1-1.1-0.1v-7.1c0.4,0,0.7,0.1,1.1,0.1c13.7,1.3,26.7,5.2,38.5,11.1c7.6,3.9,14.7,8.6,21.1,14.1 c2.7,2.3,5.3,4.7,7.7,7.3c4.5,4.7,8.6,9.9,12.2,15.5l0,0c3.6-5.5,7.7-10.7,12.2-15.5c3-3.1,6.2-6.1,9.5-8.8 C167.8,86.7,187.9,78.1,209.8,76.2z"></path> <path class="st0" d="M209.9,61.3v4.3c-22,1.9-40.1,9-54,19.1c-3.5,2.6-10.6,8.8-13.9,11.9c-4.4,4.2-11,11.5-11.9,12.6l0,0 c4.2-5.4,7.6-10,12.3-14.9c5-5.3,14.4-13.2,17.1-15C174.1,69.3,191.3,62.9,209.9,61.3z"></path> <path class="st0" d="M209.9,68.8v4.3c-20.9,1.8-38.3,8.3-52,17.9c-3.6,2.5-10.7,8.6-14.1,11.6c-4.5,4.1-11.2,11.3-12.2,12.3l0,0 c4.4-5.4,8.1-9.6,12.6-14.7c4.9-5.5,14.7-12.9,17.4-14.7C175.7,76.3,192.2,70.4,209.9,68.8z"></path> <path class="st0" d="M49.3,61.3v4.3c22,1.9,40.1,9,54,19.1c3.5,2.6,10.6,8.8,13.9,11.9c4.4,4.2,11,11.5,11.9,12.6l0,0 c-4.2-5.4-7.9-9.8-12.3-14.9c-4.8-5.6-14.4-13.2-17.1-15C85.1,69.3,67.9,62.9,49.3,61.3z"></path> <path class="st0" d="M49.3,68.8v4.3c20.9,1.8,38.3,8.3,52,17.9c3.6,2.5,10.7,8.6,14.1,11.6c4.5,4.1,11.2,11.3,12.2,12.3l0,0 c-4.4-5.4-8.1-9.6-12.6-14.7c-4.9-5.5-14.7-12.9-17.4-14.7C83.5,76.3,67,70.4,49.3,68.8z"></path> </g> <path id="B" class="st0" d="M107.3,112.4c-5.5-4.7-11.4-8.8-17.7-12.2c-0.2,0.8-0.4,1.7-0.8,2.5c-0.7,1.8-1.7,3.5-2.9,5 s-2.7,2.7-4.3,3.6c-1.7,0.9-3.4,1.3-5.3,1.3H45.6v-75h28.2c1.5,0,3,0.4,4.4,1.1c1.4,0.7,2.6,1.7,3.6,2.8s1.9,2.5,2.5,4.1 s0.9,3.2,0.9,4.8c0,1.7-0.3,3.4-0.9,5.1c-0.6,1.7-1.4,3.2-2.5,4.6c-0.9,1.1-1.9,2-3.1,2.7c5.6,2,11,4.5,16.3,7.5l0,0 c2.4-1.6,5-3.7,6.6-5.8c1.6-2.2,2.9-4.6,3.8-7.2c0.9-2.6,1.4-5,1.4-7.3c0-6.4-0.9-11.7-2.6-15.8c-1.8-4.1-4.1-7.3-7.1-9.6 c-3-2.3-6.5-3.9-10.5-4.8s-8.3-1.3-12.9-1.3H23.8V132h52.4c4.9,0,9.4-0.6,13.7-1.7c4.3-1.1,8-3,11.2-5.6s5.7-6.1,7.6-10.4 c0-0.1,0.1-0.2,0.1-0.3C108.3,113.3,107.8,112.8,107.3,112.4z"></path> </g> </g> </g> <g id="Guides"> </g> </svg> 